<svg xmlns="http://www.w3.org/2000/svg" width="130" height="210.737" viewBox="0 0 130 210.737"><defs><style>.a{fill:#ff00ba;}.a,.b,.c,.d,.e{stroke:#1f1172;stroke-width:2px;}.a,.b,.c,.e{stroke-miterlimit:10;}.b{fill:#f2e;}.c{fill:#fff;}.d{fill:none;}.e{fill:#9f40ff;}</style></defs><g transform="translate(-575.5 -254.764)"><path class="a" d="M-1250,80v0l-20-40,20-40,20,40-20,40Zm0-64-12,24,12,24,12-24-12-24Z" transform="translate(1891 257)"/><path class="b" d="M596,205l-24,48h48Z" transform="translate(45 92)"/><circle class="c" cx="5" cy="5" r="5" transform="translate(636 292)"/><line class="d" y1="52" transform="translate(641 301)"/><path class="a" d="M-1206,995a63.6,63.6,0,0,1-24.912-5.03,64,64,0,0,1-10.871-5.9,64.458,64.458,0,0,1-9.472-7.815,64.467,64.467,0,0,1-7.815-9.472,64,64,0,0,1-5.9-10.871A63.6,63.6,0,0,1-1270,931a63.6,63.6,0,0,1,5.029-24.911,64,64,0,0,1,5.9-10.871,64.467,64.467,0,0,1,7.815-9.472,64.464,64.464,0,0,1,9.472-7.815,64.008,64.008,0,0,1,10.871-5.9A63.6,63.6,0,0,1-1206,867a63.6,63.6,0,0,1,24.912,5.029,64.009,64.009,0,0,1,10.871,5.9,64.457,64.457,0,0,1,9.472,7.815,64.461,64.461,0,0,1,7.815,9.472,64.01,64.01,0,0,1,5.9,10.871A63.6,63.6,0,0,1-1142,931a63.6,63.6,0,0,1-5.029,24.912,64.012,64.012,0,0,1-5.9,10.871,64.462,64.462,0,0,1-7.815,9.472,64.455,64.455,0,0,1-9.472,7.815,64,64,0,0,1-10.871,5.9A63.6,63.6,0,0,1-1206,995Zm0-116a51.674,51.674,0,0,0-20.241,4.086,51.827,51.827,0,0,0-16.529,11.144,51.824,51.824,0,0,0-11.144,16.529A51.671,51.671,0,0,0-1258,931a51.673,51.673,0,0,0,4.087,20.241,51.825,51.825,0,0,0,11.144,16.529,51.827,51.827,0,0,0,16.529,11.144A51.674,51.674,0,0,0-1206,983a51.674,51.674,0,0,0,20.241-4.086,51.826,51.826,0,0,0,16.529-11.144,51.826,51.826,0,0,0,11.144-16.529A51.676,51.676,0,0,0-1154,931a51.674,51.674,0,0,0-4.086-20.24,51.827,51.827,0,0,0-11.144-16.529,51.826,51.826,0,0,0-16.529-11.144A51.674,51.674,0,0,0-1206,879Z" transform="translate(1846.5 -530.5)"/><path class="e" d="M604,250l-8,16,8,16,8-16Z" transform="translate(37 71)"/></g></svg>