<?xml version="1.0" encoding="iso-8859-1"?>
<!-- Generator: Adobe Illustrator 16.0.0, SVG Export Plug-In . SVG Version: 6.00 Build 0)  -->
<!DOCTYPE svg PUBLIC "-//W3C//DTD SVG 1.1//EN" "http://www.w3.org/Graphics/SVG/1.1/DTD/svg11.dtd">
<svg version="1.1" id="&#x5716;&#x5C64;_1" xmlns="http://www.w3.org/2000/svg" xmlns:xlink="http://www.w3.org/1999/xlink" x="0px"
	 y="0px" width="159.167px" height="216.969px" viewBox="-29.167 0 159.167 216.969"
	 style="enable-background:new -29.167 0 159.167 216.969;" xml:space="preserve">
<g>
	<g>
		<g>
			<path style="fill:#FF00BA;" d="M107.402,195.315c1.693,2.932,0.813,6.639-1.957,8.237c-2.771,1.599-6.422,0.509-8.113-2.423
				l-47.19-81.734c-1.693-2.932-0.812-6.639,1.958-8.238s6.42-0.508,8.113,2.423L107.402,195.315z"/>
			<path style="fill:none;stroke:#1F1172;stroke-width:2.4;stroke-miterlimit:10;" d="M107.402,195.315
				c1.693,2.932,0.813,6.639-1.957,8.237c-2.771,1.599-6.422,0.509-8.113-2.423l-47.19-81.734c-1.693-2.932-0.812-6.639,1.958-8.238
				s6.42-0.508,8.113,2.423L107.402,195.315z"/>
		</g>
		<g>
			<path style="fill:#FF00BA;stroke:#1F1172;stroke-width:2.4;stroke-miterlimit:10;" d="M84.523,179.006
				c4.643,1.195,9.145-1.468,10.066-5.953"/>
			<path style="fill:#FF00BA;stroke:#1F1172;stroke-width:2.4;stroke-miterlimit:10;" d="M87.777,184.641
				c4.643,1.195,9.145-1.468,10.066-5.954"/>
			<path style="fill:#FF00BA;stroke:#1F1172;stroke-width:2.4;stroke-miterlimit:10;" d="M91.031,190.276
				c4.643,1.195,9.143-1.469,10.066-5.954"/>
		</g>
	</g>
	<circle style="fill:#1F1172;stroke:#FF00BA;stroke-width:2.4;stroke-miterlimit:10;" cx="42.903" cy="95.222" r="40.628"/>
	<path style="fill:#FF00BA;stroke:#1F1172;stroke-width:2.4;stroke-miterlimit:10;" d="M21.945,58.922L21.945,58.922L-1.009,43.765
		l-1.648-27.456l22.953,15.155L21.945,58.922z M2.263,24.831L3.25,41.306L17.025,50.4l-0.989-16.476L2.263,24.831z"/>
	<path style="fill:#FF00BA;stroke:#1F1172;stroke-width:2.4;stroke-miterlimit:10;" d="M9.644,37.615l1.979,32.949l25.567-14.761
		L9.644,37.615z"/>
	<line style="fill:none;stroke:#1F1172;stroke-width:2.4;stroke-miterlimit:10;" x1="26.865" y1="67.443" x2="10.874" y2="39.745"/>
	<path style="fill:#FF00BA;stroke:#1F1172;stroke-width:2.4;stroke-miterlimit:10;" d="M65.419,134.221
		c-5.121,2.97-10.787,4.875-16.66,5.603c-2.836,0.351-5.7,0.426-8.551,0.225c-2.831-0.201-5.635-0.67-8.375-1.404
		c-2.739-0.736-5.405-1.729-7.956-2.971c-2.57-1.251-5.012-2.749-7.293-4.47c-4.722-3.567-8.677-8.05-11.626-13.182
		c-2.968-5.119-4.873-10.784-5.601-16.658c-0.351-2.836-0.426-5.699-0.224-8.55c0.199-2.831,0.67-5.635,1.404-8.375
		c0.735-2.739,1.729-5.404,2.971-7.955c1.25-2.569,2.749-5.011,4.47-7.292c3.567-4.723,8.05-8.678,13.182-11.628
		c5.12-2.968,10.786-4.873,16.658-5.601c2.837-0.351,5.7-0.426,8.552-0.226c2.829,0.2,5.634,0.671,8.374,1.404
		c2.74,0.735,5.405,1.729,7.956,2.972c2.567,1.251,5.013,2.747,7.292,4.469c4.725,3.567,8.678,8.05,11.627,13.182
		c2.971,5.121,4.875,10.785,5.602,16.659c0.352,2.835,0.424,5.7,0.225,8.551c-0.199,2.828-0.672,5.633-1.404,8.375
		c-0.734,2.741-1.729,5.404-2.971,7.955c-1.252,2.57-2.748,5.012-4.471,7.293C75.033,127.318,70.551,131.272,65.419,134.221z
		 M25.31,64.749c-4.17,2.396-7.813,5.609-10.71,9.445c-2.799,3.7-4.851,7.908-6.045,12.391c-1.208,4.478-1.532,9.149-0.958,13.751
		c0.591,4.771,2.139,9.375,4.551,13.535c2.397,4.168,5.609,7.811,9.447,10.709c3.699,2.797,7.907,4.852,12.39,6.046
		c4.479,1.207,9.149,1.532,13.751,0.958c4.773-0.591,9.375-2.138,13.535-4.551c4.169-2.396,7.811-5.609,10.709-9.446
		c2.799-3.698,4.85-7.905,6.047-12.388c1.207-4.48,1.531-9.152,0.959-13.754c-0.59-4.772-2.141-9.375-4.553-13.534
		c-2.396-4.168-5.609-7.812-9.444-10.709c-3.701-2.798-7.908-4.852-12.391-6.045c-4.481-1.206-9.149-1.532-13.752-0.96
		C34.073,60.788,29.469,62.337,25.31,64.749z"/>
	<path style="fill:#9F40FF;stroke:#1F1172;stroke-width:2.4;stroke-miterlimit:10;" d="M17.025,50.4l0.66,10.982l9.181,6.062
		l-0.659-10.981L17.025,50.4z"/>
	<circle style="fill:#FFFFFF;stroke:#1F1172;stroke-width:2.4;stroke-miterlimit:10;" cx="9.644" cy="37.615" r="3.076"/>
	<g>
		<path style="fill:#FF00BA;stroke:#1F1172;stroke-width:2.4;stroke-miterlimit:10;" d="M42.488,106.805l-12.818,0.297l6.666-10.953
			l-0.302-12.813l10.955,6.663l12.819-0.296l-6.667,10.952l0.292,12.817L42.488,106.805z"/>
		<path style="fill:#FFFFFF;stroke:#1F1172;stroke-width:2.4;stroke-miterlimit:10;" d="M38.933,88.358
			c-2.769,1.599-6.32,0.65-7.92-2.122c-1.602-2.774-0.646-6.322,2.123-7.921c2.779-1.604,6.324-0.655,7.926,2.12
			C42.661,83.208,41.71,86.754,38.933,88.358z"/>
	</g>
</g>
<g>
	<g>
		<path style="fill:#FF00BA;stroke:#1F1172;stroke-width:2.023;stroke-miterlimit:10;" d="M356.201,115.046
			c-2.219,1.281-1.732,6.772,0.84,14.674c-5.559-6.179-10.07-9.346-12.291-8.064c-4.59,2.65,10.676,18.49,23.846,41.299
			c13.166,22.807,19.252,43.948,23.842,41.298c2.221-1.281,9.23-5.328,11.451-6.61c4.59-2.65-10.676-18.491-23.846-41.298
			C366.875,133.535,360.791,112.395,356.201,115.046z"/>
		<path style="fill:#FF00BA;stroke:#1F1172;stroke-width:2.4;stroke-miterlimit:10;" d="M405.732,192.46
			c3.373,5.841,1.332,11.976-3.834,14.959c-5.168,2.983-11.498,1.682-14.871-4.159c-3.373-5.843,4.184-2.416,9.352-5.399
			C401.545,194.878,402.359,186.616,405.732,192.46z"/>
		<path style="fill:none;stroke:#1F1172;stroke-width:2.8285;stroke-linecap:round;stroke-miterlimit:10;" d="M385.904,198.816
			c7.451,1.724,14.805-2.62,16.445-9.716"/>
	</g>
	<circle style="fill:#1F1172;stroke:#FF00BA;stroke-width:2.4;stroke-miterlimit:10;" cx="358.747" cy="132.507" r="40.627"/>
	<path style="fill:#FF00BA;stroke:#1F1172;stroke-width:2.4;stroke-miterlimit:10;" d="M337.789,96.207L337.789,96.207
		l-22.955-15.156l-1.648-27.457l22.953,15.156L337.789,96.207z M318.107,62.116l0.986,16.474l13.775,9.094l-0.988-16.476
		L318.107,62.116z"/>
	<path style="fill:#FF00BA;stroke:#1F1172;stroke-width:2.4;stroke-miterlimit:10;" d="M325.486,74.9l1.979,32.948l25.568-14.761
		L325.486,74.9z"/>
	
		<line style="fill:none;stroke:#1F1172;stroke-width:2.4;stroke-miterlimit:10;" x1="342.709" y1="104.728" x2="326.719" y2="77.031"/>
	<path style="fill:#FF00BA;stroke:#1F1172;stroke-width:2.4;stroke-miterlimit:10;" d="M381.264,171.506
		c-5.121,2.97-10.787,4.875-16.66,5.602c-2.836,0.353-5.701,0.428-8.551,0.227c-2.83-0.201-5.635-0.672-8.375-1.405
		c-2.74-0.735-5.406-1.729-7.955-2.972c-2.57-1.25-5.012-2.748-7.293-4.469c-4.723-3.568-8.678-8.051-11.627-13.182
		c-2.969-5.118-4.873-10.784-5.602-16.658c-0.35-2.836-0.426-5.699-0.225-8.549c0.199-2.832,0.672-5.636,1.404-8.376
		c0.734-2.739,1.729-5.404,2.971-7.955c1.252-2.569,2.75-5.011,4.473-7.292c3.566-4.724,8.049-8.678,13.18-11.628
		c5.121-2.969,10.787-4.874,16.658-5.601c2.836-0.352,5.699-0.426,8.553-0.226c2.828,0.2,5.633,0.671,8.373,1.404
		c2.74,0.735,5.406,1.729,7.957,2.972c2.566,1.252,5.012,2.747,7.291,4.469c4.725,3.567,8.678,8.049,11.625,13.181
		c2.973,5.121,4.875,10.786,5.604,16.66c0.352,2.835,0.424,5.7,0.225,8.55c-0.201,2.829-0.672,5.634-1.404,8.375
		c-0.734,2.74-1.727,5.404-2.971,7.955c-1.252,2.57-2.748,5.013-4.471,7.292C390.877,164.602,386.395,168.556,381.264,171.506z
		 M341.152,102.034c-4.17,2.396-7.813,5.609-10.709,9.445c-2.799,3.7-4.852,7.908-6.045,12.391
		c-1.209,4.478-1.531,9.148-0.959,13.751c0.59,4.772,2.139,9.375,4.551,13.535c2.396,4.169,5.609,7.812,9.447,10.709
		c3.697,2.798,7.906,4.852,12.389,6.047c4.479,1.206,9.15,1.531,13.752,0.959c4.773-0.592,9.375-2.139,13.535-4.552
		c4.168-2.396,7.813-5.608,10.709-9.446c2.799-3.698,4.85-7.905,6.045-12.387c1.209-4.48,1.533-9.153,0.961-13.754
		c-0.592-4.772-2.141-9.375-4.553-13.535c-2.396-4.167-5.609-7.811-9.443-10.708c-3.701-2.798-7.908-4.852-12.393-6.044
		c-4.48-1.206-9.148-1.533-13.752-0.96C349.916,98.073,345.313,99.622,341.152,102.034z"/>
	<path style="fill:#9F40FF;stroke:#1F1172;stroke-width:2.4;stroke-miterlimit:10;" d="M332.869,87.684l0.658,10.982l9.182,6.062
		l-0.66-10.981L332.869,87.684z"/>
	<circle style="fill:#FFFFFF;stroke:#1F1172;stroke-width:2.4;stroke-miterlimit:10;" cx="325.487" cy="74.901" r="3.076"/>
	<g>
		<path style="fill:#FF00BA;stroke:#1F1172;stroke-width:2.4;stroke-miterlimit:10;" d="M358.33,144.09l-12.816,0.297l6.666-10.953
			l-0.303-12.813l10.957,6.663l12.816-0.297l-6.666,10.952l0.291,12.817L358.33,144.09z"/>
		<path style="fill:#FFFFFF;stroke:#1F1172;stroke-width:2.4;stroke-miterlimit:10;" d="M354.777,125.643
			c-2.77,1.599-6.32,0.65-7.92-2.122c-1.602-2.774-0.648-6.321,2.121-7.92c2.779-1.604,6.324-0.654,7.926,2.12
			C358.506,120.492,357.553,124.039,354.777,125.643z"/>
	</g>
</g>
</svg>
