<svg xmlns="http://www.w3.org/2000/svg" width="542" height="553.167" viewBox="0 0 542 553.167"><defs><style>.a{fill:#22299b;}.a,.b,.c{stroke:#1f1172;stroke-miterlimit:10;stroke-width:2px;}.b{fill:#ff00ba;}.c{fill:#fff;}</style></defs><g transform="translate(-369.5 -123.916)"><path class="a" d="M-1000,540a271.994,271.994,0,0,1-54.414-5.485,268.627,268.627,0,0,1-50.682-15.733,270.009,270.009,0,0,1-45.863-24.894,271.936,271.936,0,0,1-39.959-32.969,271.938,271.938,0,0,1-32.969-39.959,270.036,270.036,0,0,1-24.894-45.863,268.645,268.645,0,0,1-15.732-50.682A271.989,271.989,0,0,1-1270,270a271.988,271.988,0,0,1,5.485-54.414,268.645,268.645,0,0,1,15.732-50.682,270.036,270.036,0,0,1,24.894-45.863,271.94,271.94,0,0,1,32.969-39.959,271.937,271.937,0,0,1,39.959-32.969A270.011,270.011,0,0,1-1105.1,21.218a268.641,268.641,0,0,1,50.682-15.733A272,272,0,0,1-1000,0a272,272,0,0,1,54.414,5.485A268.64,268.64,0,0,1-894.9,21.218a270.023,270.023,0,0,1,45.863,24.894,271.944,271.944,0,0,1,39.959,32.969,271.949,271.949,0,0,1,32.969,39.959A270.016,270.016,0,0,1-751.218,164.9a268.637,268.637,0,0,1,15.733,50.682A271.991,271.991,0,0,1-730,270a271.993,271.993,0,0,1-5.486,54.414A268.638,268.638,0,0,1-751.218,375.1a270.023,270.023,0,0,1-24.894,45.863,271.945,271.945,0,0,1-32.969,39.959,271.945,271.945,0,0,1-39.959,32.969A270.021,270.021,0,0,1-894.9,518.782a268.632,268.632,0,0,1-50.682,15.733A271.994,271.994,0,0,1-1000,540Zm-.5-520a251.342,251.342,0,0,0-50.283,5.069,248.24,248.24,0,0,0-46.833,14.538,249.537,249.537,0,0,0-42.381,23,251.3,251.3,0,0,0-36.925,30.466A251.3,251.3,0,0,0-1207.39,130a249.524,249.524,0,0,0-23,42.381,248.243,248.243,0,0,0-14.538,46.834A251.339,251.339,0,0,0-1250,269.5a251.339,251.339,0,0,0,5.069,50.283,248.243,248.243,0,0,0,14.538,46.834,249.527,249.527,0,0,0,23,42.381,251.3,251.3,0,0,0,30.466,36.925A251.3,251.3,0,0,0-1140,476.39a249.533,249.533,0,0,0,42.381,23,248.251,248.251,0,0,0,46.833,14.538A251.343,251.343,0,0,0-1000.5,519a251.343,251.343,0,0,0,50.283-5.069,248.248,248.248,0,0,0,46.834-14.538,249.523,249.523,0,0,0,42.381-23,251.293,251.293,0,0,0,36.925-30.466A251.292,251.292,0,0,0-793.61,409a249.533,249.533,0,0,0,23-42.381,248.245,248.245,0,0,0,14.538-46.834A251.343,251.343,0,0,0-751,269.5a251.342,251.342,0,0,0-5.069-50.283,248.247,248.247,0,0,0-14.538-46.834,249.525,249.525,0,0,0-23-42.381,251.3,251.3,0,0,0-30.466-36.925A251.3,251.3,0,0,0-861,62.611a249.533,249.533,0,0,0-42.381-23,248.243,248.243,0,0,0-46.834-14.538A251.343,251.343,0,0,0-1000.5,20Z" transform="translate(1640.5 130.5)"/><path class="b" d="M604.243,47.757,612,52l-7.757,4.243L600,64l-4.243-7.757L588,52l7.757-4.243L600,40Z" transform="translate(41 86)"/><circle class="c" cx="4" cy="4" r="4" transform="translate(637 146)"/><path class="b" d="M833.472,184.8l.193,8.84-7.547-4.607-8.84.193,4.607-7.547-.193-8.84,7.547,4.607,8.84-.193Z" transform="translate(41 86)"/><circle class="c" cx="4" cy="4" r="4" transform="translate(854.279 271.223)"/><path class="b" d="M829.062,451.83l-7.565,4.577.227-8.839L817.148,440l8.839.227,7.565-4.577-.227,8.839,4.577,7.565Z" transform="translate(41 86)"/><circle class="c" cx="4" cy="4" r="4" transform="translate(854.148 522.003)"/><path class="b" d="M595.433,581.226l-7.741-4.273,7.774-4.213L599.738,565l4.213,7.774,7.741,4.273-7.774,4.213L599.646,589Z" transform="translate(41 86)"/><circle class="c" cx="4" cy="4" r="4" transform="translate(636.738 647)"/><path class="b" d="M366.736,443.3l-.159-8.84,7.529,4.636,8.84-.159-4.636,7.529.159,8.84-7.529-4.636-8.84.159Z" transform="translate(41 86)"/><circle class="c" cx="4" cy="4" r="4" transform="translate(419.947 520.936)"/><path class="b" d="M372.18,176.285l7.582-4.548-.262,8.838,4.548,7.582-8.838-.262-7.582,4.548.262-8.838-4.548-7.582Z" transform="translate(41 86)"/><circle class="c" cx="4" cy="4" r="4" transform="translate(421.049 270.158)"/></g></svg>